<?xml version="1.0" standalone="no"?><!DOCTYPE svg PUBLIC "-//W3C//DTD SVG 1.1//EN" "http://www.w3.org/Graphics/SVG/1.1/DTD/svg11.dtd"><svg t="1772441754568" class="icon" viewBox="0 0 1024 1024" version="1.1" xmlns="http://www.w3.org/2000/svg" p-id="30394" xmlns:xlink="http://www.w3.org/1999/xlink" width="200" height="200"><path d="M875.95 109.5C847.55 84.82 810.49 69.87 770 69.87H255.9c-35.94 0-69.18 11.78-96.05 31.7-39.8 29.48-65.65 76.78-65.65 130v561c0 89.16 72.54 161.7 161.7 161.7H770c89.17 0 161.7-72.54 161.7-161.7v-561c0-48.67-21.62-92.39-55.75-122.07zM770 894.87H255.9c-31.28 0-59.32-14.11-78.09-36.3-7.67-9.05-13.8-19.45-17.96-30.78-4.04-10.98-6.25-22.85-6.25-35.22v-561c0-12.37 2.21-24.24 6.25-35.22 14.38-39.11 52.01-67.08 96.05-67.08H770c56.41 0 102.3 45.89 102.3 102.3v561c0 25.14-9.11 48.18-24.21 66-18.77 22.19-46.81 36.3-78.09 36.3z" fill="#616266" p-id="30395"></path><path d="M710.95 222.33v61.38H553.87v409.86h-71.28V283.71H324.85v-61.38zM790.15 792.57c0 16.4-13.3 29.7-29.7 29.7h-462c-16.4 0-29.7-13.3-29.7-29.7s13.3-29.7 29.7-29.7h462c16.4 0 29.7 13.3 29.7 29.7z" fill="#616266" p-id="30396"></path><path d="M790.15 792.57c0 16.4-13.3 29.7-29.7 29.7h-462c-16.4 0-29.7-13.3-29.7-29.7s13.3-29.7 29.7-29.7h462c16.4 0 29.7 13.3 29.7 29.7z" fill="#616266" p-id="30397"></path></svg>