<?xml version="1.0" standalone="no"?><!DOCTYPE svg PUBLIC "-//W3C//DTD SVG 1.1//EN" "http://www.w3.org/Graphics/SVG/1.1/DTD/svg11.dtd"><svg t="1772441638498" class="icon" viewBox="0 0 1024 1024" version="1.1" xmlns="http://www.w3.org/2000/svg" p-id="24615" xmlns:xlink="http://www.w3.org/1999/xlink" width="200" height="200"><path d="M384 170.666667a85.333333 85.333333 0 0 1 85.333333 85.333333v291.285333c-38.144-29.44-86.784-46.805333-142.336-56.021333l-13.994666 84.138667c58.88 9.813333 96.469333 28.458667 119.637333 53.546666 22.613333 24.490667 36.693333 60.842667 36.693333 117.717334a106.666667 106.666667 0 0 1-213.333333 0v-14.933334c18.346667 6.101333 37.376 11.093333 57.002667 14.336l13.994666-84.138666c-31.701333-5.290667-63.530667-17.066667-95.36-32.170667A106.496 106.496 0 0 1 170.666667 533.333333c0-35.626667 8.874667-63.658667 23.850666-84.224 14.72-20.309333 37.674667-36.522667 71.850667-45.056L298.666667 395.946667V256a85.333333 85.333333 0 0 1 85.333333-85.333333z m128-27.562667A170.666667 170.666667 0 0 0 213.333333 256v75.690667c-36.309333 14.592-66.090667 37.290667-87.850666 67.2C97.792 436.992 85.333333 483.626667 85.333333 533.333333a191.573333 191.573333 0 0 0 85.333334 159.658667V746.666667a192 192 0 0 0 341.333333 120.704 192 192 0 0 0 341.333333-120.704v-53.674667a191.573333 191.573333 0 0 0 85.333334-159.658667c0-49.706667-12.458667-96.341333-40.149334-134.4-21.76-29.952-51.541333-52.650667-87.850666-67.242666V256a170.666667 170.666667 0 0 0-298.666667-112.896z m256 588.586667v14.976a106.666667 106.666667 0 0 1-213.333333 0c0-56.874667 14.08-93.226667 36.693333-117.76 23.168-25.045333 60.757333-43.690667 119.637333-53.504l-13.994666-84.138667c-55.552 9.216-104.192 26.581333-142.336 56.021333V256a85.333333 85.333333 0 1 1 170.666666 0v139.946667l32.341334 8.106666c34.133333 8.533333 57.088 24.746667 71.808 45.056 14.976 20.565333 23.850667 48.64 23.850666 84.224 0 42.624-24.832 79.232-61.013333 96.426667-31.786667 15.104-63.658667 26.88-95.317333 32.170667l13.994666 84.138666c19.626667-3.242667 38.656-8.234667 57.002667-14.378666z" fill="#000000" p-id="24616"></path></svg>