<?xml version="1.0" standalone="no"?><!DOCTYPE svg PUBLIC "-//W3C//DTD SVG 1.1//EN" "http://www.w3.org/Graphics/SVG/1.1/DTD/svg11.dtd"><svg t="1772592381072" class="icon" viewBox="0 0 1024 1024" version="1.1" xmlns="http://www.w3.org/2000/svg" p-id="48364" xmlns:xlink="http://www.w3.org/1999/xlink" width="200" height="200"><path d="M512 0c-281.6 0-512 230.4-512 512s230.4 512 512 512 512-230.4 512-512S793.6 0 512 0z m0 944.4c-238.9 0-432.4-193.4-432.4-432.4S273.1 79.6 512 79.6 944.4 273.1 944.4 512 750.9 944.4 512 944.4z" p-id="48365"></path><path d="M461.7 278.8v284.4c0 22.8 19.9 42.7 42.7 42.7h284.4c22.8 0 42.7-19.9 42.7-42.7s-19.9-42.7-42.7-42.7H547V278.8c0-22.8-19.9-42.7-42.7-42.7s-42.6 17.1-42.6 42.7z" p-id="48366"></path></svg>