<?xml version="1.0" standalone="no"?><!DOCTYPE svg PUBLIC "-//W3C//DTD SVG 1.1//EN" "http://www.w3.org/Graphics/SVG/1.1/DTD/svg11.dtd"><svg t="1772440285579" class="icon" viewBox="0 0 1024 1024" version="1.1" xmlns="http://www.w3.org/2000/svg" p-id="18186" xmlns:xlink="http://www.w3.org/1999/xlink" width="200" height="200"><path d="M808.566154 442.289231l-221.223385-78.532923L508.849231 142.572308a51.987692 51.987692 0 0 0-97.988923 0L332.366769 363.756308l-221.184 78.493538a51.987692 51.987692 0 0 0 0 97.988923L332.406154 618.732308l78.493538 221.184a51.987692 51.987692 0 0 0 97.988923 0l78.493539-221.184 221.184-78.493539a51.987692 51.987692 0 0 0 0-97.988923z m-254.267077 111.773538a51.869538 51.869538 0 0 0-31.625846 31.625846l-62.818462 176.994462-62.857846-176.994462a51.830154 51.830154 0 0 0-31.625846-31.625846l-176.994462-62.818461 176.994462-62.818462a51.751385 51.751385 0 0 0 31.625846-31.625846l62.818462-176.994462 62.857846 176.994462a51.790769 51.790769 0 0 0 31.586461 31.625846l176.994462 62.818462-176.955077 62.818461z" p-id="18187"></path><path d="M769.142154 638.148923l-126.818462 44.583385a35.997538 35.997538 0 0 0 23.906462 67.938461l126.779077-44.622769a35.997538 35.997538 0 0 0-23.906462-67.899077z m-80.147692 160.531692l-85.464616 30.050462a35.997538 35.997538 0 0 0 23.945846 67.899077l85.425231-30.050462a35.958154 35.958154 0 1 0-23.906461-67.899077z" p-id="18188"></path></svg>