<?xml version="1.0" standalone="no"?><!DOCTYPE svg PUBLIC "-//W3C//DTD SVG 1.1//EN" "http://www.w3.org/Graphics/SVG/1.1/DTD/svg11.dtd"><svg t="1772438394986" class="icon" viewBox="0 0 1024 1024" version="1.1" xmlns="http://www.w3.org/2000/svg" p-id="2523" xmlns:xlink="http://www.w3.org/1999/xlink" width="200" height="200"><path d="M902.8 192.9c-36.8-39-86.9-60.8-139.1-60.7h-0.2c-52-0.1-102 21.6-138.7 60.4l-0.1 0.1-362.3 381.2c-33.7 35.6-43.7 89-25.4 135.4 18.3 46.4 61.4 76.6 109.2 76.5 30.2 0 60.3-12 83.2-36.2l362.3-381.2c15.4-16.2 15.4-42.4 0-58.6-15.4-16.2-40.3-16.2-55.7 0L373.8 691c-7.4 7.7-17.4 12-27.8 12-10.4 0-20.4-4.4-27.7-12.2-7.5-7.6-11.7-18.1-11.8-29.1 0-11 4.1-21.5 11.5-29.2l362.3-381.2c22-23.3 52-36.3 83.2-36.2h0.1c31.3-0.1 61.4 13.1 83.5 36.4 22.3 23.4 34.6 54.7 34.6 87.8 0.1 32.9-12.3 64.5-34.4 87.7l-97.8 102.9-0.6 0.6-271.1 285.4c-76.9 80.8-201.5 80.9-278.5 0.1-37-38.8-57.7-91.5-57.5-146.4 0-55.4 20.5-107.5 57.7-146.6l369.4-388.7c15.4-16.2 15.4-42.4 0-58.6-15.4-16.2-40.3-16.2-55.7 0L143.8 464.4c-51.9 54.3-81 128.2-80.8 205.2 0 77.5 28.6 150.4 80.6 205 51.6 54.4 121.7 84.9 194.8 84.7 73.2 0.1 143.4-30.4 195.1-84.9l383.1-403.1c3.8-4.1 6.8-9 8.7-14.3 22.8-34.4 35.2-75 35.2-117.8 0.1-54.9-20.7-107.6-57.7-146.3" p-id="2524"></path></svg>