<?xml version="1.0" standalone="no"?><!DOCTYPE svg PUBLIC "-//W3C//DTD SVG 1.1//EN" "http://www.w3.org/Graphics/SVG/1.1/DTD/svg11.dtd"><svg t="1770172200913" class="icon" viewBox="0 0 1024 1024" version="1.1" xmlns="http://www.w3.org/2000/svg" p-id="44332" xmlns:xlink="http://www.w3.org/1999/xlink" width="200" height="200"><path d="M793.995 604L912 912h-85.934l-18.503-53.512H692.437L673.934 912H588l118.005-308h87.99zM161.126 464.618l139.256 97.508-34.415 49.15-46.526-32.579c29.974 132.034 147.036 230.984 287.598 233.263L512 812v80c-180.596 0-331.768-125.982-370.425-294.857l-28.808 41.146-49.149-34.415 97.508-139.256z m588.372 231.084l-36.111 101.67h72.223l-36.112-101.67zM511 132c180.596 0 331.768 125.982 370.425 294.857l28.808-41.146 49.149 34.415-97.508 139.256-139.256-97.508 34.415-49.15 46.526 32.579C773.585 313.269 656.523 214.319 515.961 212.04L511 212v-80z m-199-20v320h-80V112h80z m-120 80v160h-80V192h80z m240 0v160h-80V192h80z" fill="#8C8C8C" p-id="44333"></path></svg>