<?xml version="1.0" standalone="no"?><!DOCTYPE svg PUBLIC "-//W3C//DTD SVG 1.1//EN" "http://www.w3.org/Graphics/SVG/1.1/DTD/svg11.dtd"><svg t="1770097557356" class="icon" viewBox="0 0 1024 1024" version="1.1" xmlns="http://www.w3.org/2000/svg" p-id="32349" xmlns:xlink="http://www.w3.org/1999/xlink" width="200" height="200"><path d="M512 228.9c-18.5 0-33.4-15-33.4-33.4V98.8c0-18.5 15-33.4 33.4-33.4s33.4 15 33.4 33.4v96.7c0 18.5-14.9 33.4-33.4 33.4zM512 958.6c-18.5 0-33.4-15-33.4-33.4v-96.7c0-18.5 15-33.4 33.4-33.4s33.4 15 33.4 33.4v96.7c0 18.4-14.9 33.4-33.4 33.4zM735.8 321.6c-8.6 0-17.1-3.3-23.6-9.8-13.1-13.1-13.1-34.2 0-47.3l68.4-68.4c13.1-13.1 34.2-13.1 47.3 0 13.1 13.1 13.1 34.2 0 47.3l-68.4 68.4c-6.6 6.6-15.1 9.8-23.7 9.8zM219.8 837.6c-8.6 0-17.1-3.3-23.6-9.8-13.1-13.1-13.1-34.2 0-47.3l68.3-68.3c13.1-13.1 34.2-13.1 47.3 0 13.1 13.1 13.1 34.2 0 47.3l-68.3 68.3c-6.5 6.5-15.1 9.8-23.7 9.8zM925.2 545.4h-96.7c-18.5 0-33.4-15-33.4-33.4 0-18.5 15-33.4 33.4-33.4h96.7c18.5 0 33.4 15 33.4 33.4 0 18.5-15 33.4-33.4 33.4zM195.5 545.4H98.8c-18.5 0-33.4-15-33.4-33.4 0-18.5 15-33.4 33.4-33.4h96.7c18.5 0 33.4 15 33.4 33.4 0 18.5-14.9 33.4-33.4 33.4z" p-id="32350"></path><path d="M804.2 837.6c-8.6 0-17.1-3.3-23.6-9.8l-68.4-68.3c-13.1-13.1-13.1-34.2 0-47.3 13.1-13.1 34.2-13.1 47.3 0l68.4 68.3c13.1 13.1 13.1 34.2 0 47.3-6.6 6.5-15.2 9.8-23.7 9.8zM288.2 321.6c-8.6 0-17.1-3.3-23.6-9.8l-68.3-68.4c-13.1-13.1-13.1-34.2 0-47.3 13.1-13.1 34.2-13.1 47.3 0l68.3 68.4c13.1 13.1 13.1 34.2 0 47.3-6.6 6.6-15.1 9.8-23.7 9.8z" p-id="32351"></path><path d="M510.6 512m-138.4 0a138.4 138.4 0 1 0 276.8 0 138.4 138.4 0 1 0-276.8 0Z" p-id="32352"></path><path d="M510.6 756c-134.5 0-244-109.4-244-244s109.4-244 244-244 244 109.4 244 244-109.5 244-244 244z m0-435c-105.3 0-191 85.7-191 191s85.7 191 191 191 191-85.7 191-191-85.6-191-191-191z" p-id="32353"></path></svg>