<?xml version="1.0" standalone="no"?><!DOCTYPE svg PUBLIC "-//W3C//DTD SVG 1.1//EN" "http://www.w3.org/Graphics/SVG/1.1/DTD/svg11.dtd"><svg t="1770096847646" class="icon" viewBox="0 0 1024 1024" version="1.1" xmlns="http://www.w3.org/2000/svg" p-id="18403" xmlns:xlink="http://www.w3.org/1999/xlink" width="200" height="200"><path d="M176 752a16 16 0 0 0-16 16v64c0 8.832 7.168 16 16 16h672a16 16 0 0 0 16-16v-64a16 16 0 0 0-16-16H176z m240-192a16 16 0 0 0-16 16v64c0 8.832 7.168 16 16 16h432a16 16 0 0 0 16-16V576a16 16 0 0 0-16-16H416zM299.264 395.392a16 16 0 0 0-22.592 0.064L171.264 501.376a16 16 0 0 0 0.064 22.592l105.408 104.896a16 16 0 0 0 27.264-11.328V406.784a16 16 0 0 0-4.736-11.392zM416 368a16 16 0 0 0-16 16v64c0 8.832 7.168 16 16 16h432A16 16 0 0 0 864 448V384a16 16 0 0 0-16-16H416z m-240-192A16 16 0 0 0 160 192v64c0 8.832 7.168 16 16 16h672A16 16 0 0 0 864 256V192a16 16 0 0 0-16-16H176z" fill="#000000" p-id="18404"></path></svg>