<?xml version="1.0" standalone="no"?><!DOCTYPE svg PUBLIC "-//W3C//DTD SVG 1.1//EN" "http://www.w3.org/Graphics/SVG/1.1/DTD/svg11.dtd"><svg t="1770096880574" class="icon" viewBox="0 0 1024 1024" version="1.1" xmlns="http://www.w3.org/2000/svg" p-id="18555" xmlns:xlink="http://www.w3.org/1999/xlink" width="200" height="200"><path d="M848 752a16 16 0 0 1 16 16v64a16 16 0 0 1-16 16H176A16 16 0 0 1 160 832v-64a16 16 0 0 1 16-16h672z m-240-192a16 16 0 0 1 16 16v64a16 16 0 0 1-16 16H176A16 16 0 0 1 160 640V576a16 16 0 0 1 16-16H608z m116.736-164.608a16 16 0 0 1 22.592 0.064l105.408 105.92a16 16 0 0 1-0.064 22.592l-105.408 104.896a16 16 0 0 1-27.264-11.328V406.784a16 16 0 0 1 4.736-11.392zM608 368a16 16 0 0 1 16 16v64a16 16 0 0 1-16 16H176A16 16 0 0 1 160 448V384a16 16 0 0 1 16-16H608z m240-192a16 16 0 0 1 16 16v64a16 16 0 0 1-16 16H176A16 16 0 0 1 160 256V192a16 16 0 0 1 16-16h672z" fill="#000000" p-id="18556"></path></svg>